<svg width="28" height="28" viewBox="0 0 30 30" fill="none" xmlns="http://www.w3.org/2000/svg">
<g clip-path="url(#clip0)">
<path opacity="0.1" d="M14.9986 29.9992C23.2829 29.9992 29.9986 23.2835 29.9986 14.9992C29.9986 6.71494 23.2829 -0.000793457 14.9986 -0.000793457C6.71432 -0.000793457 -0.00140381 6.71494 -0.00140381 14.9992C-0.00140381 23.2835 6.71432 29.9992 14.9986 29.9992Z" fill="white"/>
<path opacity="0.1" d="M14.9986 -0.000793457V29.9992C23.2826 29.9992 29.9986 23.2834 29.9986 14.999C29.9986 6.71481 23.2826 -0.000793457 14.9986 -0.000793457Z" fill="white"/>
<path d="M14.9986 28.0968C22.2322 28.0968 28.0962 22.2328 28.0962 14.9992C28.0962 7.76561 22.2322 1.90161 14.9986 1.90161C7.765 1.90161 1.901 7.76561 1.901 14.9992C1.901 22.2328 7.765 28.0968 14.9986 28.0968Z" fill="white"/>
<path d="M14.9986 1.90161V28.0968C22.2322 28.0968 28.0962 22.233 28.0962 14.9992C28.0962 7.76561 22.2322 1.90161 14.9986 1.90161Z" fill="white"/>
<path d="M1.9158 14.4136C1.9072 14.6078 1.901 14.8026 1.901 14.999C1.901 22.2328 7.765 28.0966 14.9986 28.0966V26.926C7.9612 26.9262 2.222 21.3756 1.9158 14.4136Z" fill="white"/>
<path d="M28.0814 14.4136C27.7748 21.3756 22.036 26.926 14.9986 26.926V28.0966C22.2322 28.0966 28.0962 22.2328 28.0962 14.999C28.0962 14.8028 28.09 14.6078 28.0814 14.4136Z" fill="white"/>
<path d="M14.9798 6.46436C10.1668 6.46436 6.265 10.33 6.265 15.098C6.265 17.638 7.3724 19.9216 9.1346 21.5016C7.5786 19.9748 6.612 17.844 6.612 15.4862C6.612 10.843 10.3584 7.07876 14.98 7.07876C19.6016 7.07876 23.348 10.843 23.348 15.4862C23.348 17.8438 22.3814 19.9744 20.8254 21.5012C22.5876 19.9216 23.695 17.638 23.695 15.098C23.6948 10.33 19.7926 6.46436 14.9798 6.46436Z" fill="black"/>
<path d="M20.8672 14.159C20.8672 10.9024 18.2272 8.26239 14.9704 8.26239C11.7134 8.26239 9.07339 10.9024 9.07339 14.159C9.07339 16.768 10.7688 18.9798 13.1168 19.757C13.4166 21.4242 13.8016 23.1094 13.8016 23.1094C13.802 23.1098 13.8508 23.4704 14.2816 23.4704H14.9704H15.6588C16.09 23.4704 16.139 23.1098 16.1394 23.1086C16.1394 23.109 16.5238 21.4238 16.8236 19.757C19.1722 18.9798 20.8672 16.768 20.8672 14.159ZM14.9792 15.5842C14.9734 15.5842 14.97 15.5842 14.97 15.5842C14.9696 15.5842 14.967 15.5842 14.9618 15.5842C14.8482 15.5848 13.645 15.5972 13.0732 16.1762C12.3516 15.6116 11.8858 14.735 11.8858 13.7476C11.8858 12.044 13.2666 10.6632 14.9704 10.6632C16.6738 10.6632 18.0546 12.044 18.0546 13.7476C18.0546 14.735 17.5894 15.6114 16.8676 16.1762C16.2954 15.5972 15.0928 15.5848 14.9792 15.5842ZM16.8804 19.4348C17.0446 18.4844 17.1716 17.5764 17.1716 17.0308C17.1716 16.9218 17.1666 16.827 17.1558 16.7492C17.1384 16.628 17.1012 16.5198 17.0498 16.4224C17.913 15.7842 18.4734 14.7594 18.4734 13.6032C18.4734 11.6682 16.9048 10.0998 14.9702 10.0998C13.0352 10.0998 11.4666 11.6682 11.4666 13.6032C11.4666 14.7592 12.027 15.7842 12.8908 16.4224C12.8394 16.5198 12.802 16.6278 12.7846 16.7492C12.7738 16.8272 12.7684 16.9218 12.7684 17.0308C12.7684 17.5762 12.8954 18.4844 13.0596 19.4348C10.9856 18.6602 9.50839 16.6614 9.50839 14.3172C9.50839 11.3008 11.9536 8.85559 14.9702 8.85559C17.9864 8.85559 20.432 11.3008 20.432 14.3172C20.432 16.6614 18.9544 18.6602 16.8804 19.4348Z" fill="black"/>
<path d="M14.9704 15.2927C15.9423 15.2927 16.7302 14.5048 16.7302 13.5329C16.7302 12.561 15.9423 11.7731 14.9704 11.7731C13.9985 11.7731 13.2106 12.561 13.2106 13.5329C13.2106 14.5048 13.9985 15.2927 14.9704 15.2927Z" fill="black"/>
</g>
<defs>
<clipPath id="clip0">
<rect width="30" height="30" fill="white"/>
</clipPath>
</defs>
</svg>
