<svg width="24" height="24" viewBox="0 0 27 27" fill="none" xmlns="http://www.w3.org/2000/svg">
<path d="M13.5 1.62C12.6117 1.62 11.88 2.35171 11.88 3.24V4.85999C11.88 5.74828 12.6117 6.47999 13.5 6.47999C14.3883 6.47999 15.12 5.74828 15.12 4.85999V3.24C15.12 2.35171 14.3883 1.62 13.5 1.62ZM13.5 2.7C13.8051 2.7 14.04 2.93488 14.04 3.24V4.85999C14.04 5.16511 13.8051 5.39999 13.5 5.39999C13.1949 5.39999 12.96 5.16511 12.96 4.85999V3.24C12.96 2.93488 13.1949 2.7 13.5 2.7ZM8.64 6.47999C7.75172 6.47999 7.02 7.21171 7.02 8.09999V12.96C7.02 13.8483 7.75172 14.58 8.64 14.58C9.52828 14.58 10.26 13.8483 10.26 12.96V8.09999C10.26 7.21171 9.52828 6.47999 8.64 6.47999ZM18.36 6.47999C17.4717 6.47999 16.74 7.21171 16.74 8.09999V9.71999C16.74 10.6083 17.4717 11.34 18.36 11.34C19.2483 11.34 19.98 10.6083 19.98 9.71999V8.09999C19.98 7.21171 19.2483 6.47999 18.36 6.47999ZM8.64 7.55999C8.94512 7.55999 9.18 7.79488 9.18 8.09999V12.96C9.18 13.2651 8.94512 13.5 8.64 13.5C8.33488 13.5 8.1 13.2651 8.1 12.96V8.09999C8.1 7.79488 8.33488 7.55999 8.64 7.55999ZM13.5 7.55999C12.6117 7.55999 11.88 8.29171 11.88 9.17999V17.82C11.88 18.7083 12.6117 19.44 13.5 19.44C14.3883 19.44 15.12 18.7083 15.12 17.82V9.17999C15.12 8.29171 14.3883 7.55999 13.5 7.55999ZM18.36 7.55999C18.6651 7.55999 18.9 7.79488 18.9 8.09999V9.71999C18.9 10.0251 18.6651 10.26 18.36 10.26C18.0549 10.26 17.82 10.0251 17.82 9.71999V8.09999C17.82 7.79488 18.0549 7.55999 18.36 7.55999ZM13.5 8.63999C13.8051 8.63999 14.04 8.87488 14.04 9.17999V17.82C14.04 18.1251 13.8051 18.36 13.5 18.36C13.1949 18.36 12.96 18.1251 12.96 17.82V9.17999C12.96 8.87488 13.1949 8.63999 13.5 8.63999ZM3.78 10.8C2.89172 10.8 2.16 11.5317 2.16 12.42V14.04C2.16 14.9283 2.89172 15.66 3.78 15.66C4.66828 15.66 5.4 14.9283 5.4 14.04V12.42C5.4 11.5317 4.66828 10.8 3.78 10.8ZM23.22 11.34C22.3317 11.34 21.6 12.0717 21.6 12.96V14.58C21.6 15.4683 22.3317 16.2 23.22 16.2C24.1083 16.2 24.84 15.4683 24.84 14.58V12.96C24.84 12.0717 24.1083 11.34 23.22 11.34ZM3.78 11.88C4.08512 11.88 4.32 12.1149 4.32 12.42V14.04C4.32 14.3451 4.08512 14.58 3.78 14.58C3.47488 14.58 3.24 14.3451 3.24 14.04V12.42C3.24 12.1149 3.47488 11.88 3.78 11.88ZM18.36 12.42C17.4717 12.42 16.74 13.1517 16.74 14.04V18.9C16.74 19.7883 17.4717 20.52 18.36 20.52C19.2483 20.52 19.98 19.7883 19.98 18.9V14.04C19.98 13.1517 19.2483 12.42 18.36 12.42ZM23.22 12.42C23.5251 12.42 23.76 12.6549 23.76 12.96V14.58C23.76 14.8851 23.5251 15.12 23.22 15.12C22.9149 15.12 22.68 14.8851 22.68 14.58V12.96C22.68 12.6549 22.9149 12.42 23.22 12.42ZM18.36 13.5C18.6651 13.5 18.9 13.7349 18.9 14.04V18.9C18.9 19.2051 18.6651 19.44 18.36 19.44C18.0549 19.44 17.82 19.2051 17.82 18.9V14.04C17.82 13.7349 18.0549 13.5 18.36 13.5ZM8.64 15.66C7.75172 15.66 7.02 16.3917 7.02 17.28V18.9C7.02 19.7883 7.75172 20.52 8.64 20.52C9.52828 20.52 10.26 19.7883 10.26 18.9V17.28C10.26 16.3917 9.52828 15.66 8.64 15.66ZM8.64 16.74C8.94512 16.74 9.18 16.9749 9.18 17.28V18.9C9.18 19.2051 8.94512 19.44 8.64 19.44C8.33488 19.44 8.1 19.2051 8.1 18.9V17.28C8.1 16.9749 8.33488 16.74 8.64 16.74ZM13.5 20.52C12.6117 20.52 11.88 21.2517 11.88 22.14V23.76C11.88 24.6483 12.6117 25.38 13.5 25.38C14.3883 25.38 15.12 24.6483 15.12 23.76V22.14C15.12 21.2517 14.3883 20.52 13.5 20.52ZM13.5 21.6C13.8051 21.6 14.04 21.8349 14.04 22.14V23.76C14.04 24.0651 13.8051 24.3 13.5 24.3C13.1949 24.3 12.96 24.0651 12.96 23.76V22.14C12.96 21.8349 13.1949 21.6 13.5 21.6Z" fill="white"/>
</svg>
