<svg width="24" height="24" viewBox="0 0 28 28" fill="none" xmlns="http://www.w3.org/2000/svg">
<path d="M19.25 0.5H8.75C6.56196 0.5 4.46354 1.36919 2.91637 2.91637C1.36919 4.46354 0.5 6.56196 0.5 8.75V19.25C0.5 21.438 1.36919 23.5365 2.91637 25.0836C4.46354 26.6308 6.56196 27.5 8.75 27.5H19.25C21.438 27.5 23.5365 26.6308 25.0836 25.0836C26.6308 23.5365 27.5 21.438 27.5 19.25V8.75C27.5 6.56196 26.6308 4.46354 25.0836 2.91637C23.5365 1.36919 21.438 0.5 19.25 0.5ZM25.25 19.25C25.2482 20.8407 24.6155 22.3658 23.4907 23.4907C22.3658 24.6155 20.8407 25.2482 19.25 25.25H8.75C7.15925 25.2482 5.63418 24.6155 4.50935 23.4907C3.38452 22.3658 2.7518 20.8407 2.75 19.25V8.75C2.75179 7.15925 3.3845 5.63416 4.50933 4.50933C5.63416 3.3845 7.15925 2.75179 8.75 2.75H19.25C20.8407 2.75179 22.3658 3.3845 23.4907 4.50933C24.6155 5.63416 25.2482 7.15925 25.25 8.75V19.25Z" fill="white"/>
<path d="M14 7.25C12.665 7.25 11.3599 7.64588 10.2499 8.38758C9.13987 9.12928 8.27471 10.1835 7.76381 11.4169C7.25292 12.6503 7.11925 14.0075 7.3797 15.3169C7.64015 16.6262 8.28303 17.829 9.22703 18.773C10.171 19.717 11.3738 20.3598 12.6831 20.6203C13.9925 20.8808 15.3497 20.7471 16.5831 20.2362C17.8165 19.7253 18.8707 18.8601 19.6124 17.7501C20.3541 16.6401 20.75 15.335 20.75 14C20.75 12.2098 20.0388 10.4929 18.773 9.22703C17.5071 7.96116 15.7902 7.25 14 7.25ZM14 18.5C13.11 18.5 12.24 18.2361 11.4999 17.7416C10.7599 17.2471 10.1831 16.5443 9.84254 15.7221C9.50195 14.8998 9.41283 13.995 9.58647 13.1221C9.7601 12.2492 10.1887 11.4474 10.818 10.818C11.4474 10.1887 12.2492 9.7601 13.1221 9.58647C13.995 9.41283 14.8998 9.50195 15.7221 9.84254C16.5443 10.1831 17.2471 10.7599 17.7416 11.4999C18.2361 12.24 18.5 13.11 18.5 14C18.4986 15.1931 18.0241 16.3369 17.1805 17.1805C16.3369 18.0241 15.1931 18.4987 14 18.5Z" fill="white"/>
<path d="M21.05 8.44997C21.8784 8.44997 22.55 7.7784 22.55 6.94997C22.55 6.12155 21.8784 5.44997 21.05 5.44997C20.2216 5.44997 19.55 6.12155 19.55 6.94997C19.55 7.7784 20.2216 8.44997 21.05 8.44997Z" fill="white"/>
</svg>
