<svg width="28" height="28" viewBox="0 0 48 48" fill="none" xmlns="http://www.w3.org/2000/svg">
<g clip-path="url(#clip0)">
<path d="M17.5788 38.0825L15.15 40.4945C13.0446 42.5813 9.6204 42.5831 7.5162 40.4945C6.5046 39.4907 5.949 38.1575 5.949 36.7403C5.949 35.3231 6.5052 33.9893 7.5156 32.9855L16.4556 24.1157C18.3084 22.2785 21.7938 19.5731 24.3342 22.0925C25.5 23.2505 27.3828 23.2427 28.5402 22.0775C29.6982 20.9123 29.691 19.0289 28.5252 17.8721C24.207 13.5869 17.8248 14.3789 12.2664 19.8941L3.3258 28.7645C1.1808 30.8939 0 33.7259 0 36.7403C0 39.7547 1.1808 42.5861 3.3264 44.7155C5.5338 46.9055 8.4324 47.9999 11.3322 47.9999C14.2326 47.9999 17.1324 46.9055 19.341 44.7143L21.7716 42.3017C22.9368 41.1449 22.9434 39.2621 21.7854 38.0963C20.6292 36.9317 18.7446 36.9251 17.5788 38.0825ZM44.6724 3.62629C40.0344 -0.975711 33.5496 -1.22531 29.256 3.03469L26.2284 6.04009C25.0626 7.19749 25.0554 9.07969 26.2134 10.2455C27.3714 11.4113 29.2542 11.4179 30.42 10.2605L33.4464 7.25689C35.6706 5.04829 38.583 5.96389 40.4826 7.84849C41.4954 8.85229 42.0516 10.1861 42.0516 11.6033C42.0516 13.0211 41.4948 14.3549 40.4838 15.3587L30.9456 24.8207C26.5842 29.1479 24.5382 27.1169 23.6652 26.2505C22.4994 25.0931 20.6172 25.1003 19.4592 26.2655C18.3012 27.4307 18.3084 29.3141 19.4742 30.4709C21.4764 32.4581 23.7618 33.4433 26.1576 33.4433C29.091 33.4433 32.1894 31.9661 35.1354 29.0411L44.6736 19.5791C46.818 17.4497 48 14.6171 48 11.6027C48 8.58949 46.818 5.75689 44.6724 3.62629Z" fill="white"/>
</g>
<defs>
<clipPath id="clip0">
<rect width="48" height="48" fill="white"/>
</clipPath>
</defs>
</svg>
