<svg width="24" height="24" viewBox="0 0 22 22" fill="none" xmlns="http://www.w3.org/2000/svg">
<path fill-rule="evenodd" clip-rule="evenodd" d="M22 11C22 17.0753 17.0753 22 11 22C4.92474 22 0 17.0753 0 11C0 4.92474 4.92474 0 11 0C17.0753 0 22 4.92474 22 11Z" fill="white"/>
<path fill-rule="evenodd" clip-rule="evenodd" d="M2.44444 11.1019C2.44444 6.32051 6.3205 2.44446 11.1019 2.44446C15.8832 2.44446 19.7593 6.32051 19.7593 11.1019H17.5949C17.5949 7.51585 14.6879 4.60881 11.1019 4.60881C7.51584 4.60881 4.60879 7.51585 4.60879 11.1019C4.60879 14.6879 7.51584 17.5949 11.1019 17.5949V19.7593C6.3205 19.7593 2.44444 15.8832 2.44444 11.1019ZM11.1019 16.2963C8.23304 16.2963 5.90741 13.9707 5.90741 11.1019C5.90741 8.23305 8.23304 5.90742 11.1019 5.90742C13.9707 5.90742 16.2963 8.23305 16.2963 11.1019H14.4074C14.4074 9.27626 12.9275 7.79631 11.1019 7.79631C9.27624 7.79631 7.79629 9.27626 7.79629 11.1019C7.79629 12.9275 9.27624 14.4074 11.1019 14.4074V16.2963Z" fill="black"/>
</svg>
