<svg width="24" height="24" viewBox="0 0 27 27" fill="none" xmlns="http://www.w3.org/2000/svg">
<path fill-rule="evenodd" clip-rule="evenodd" d="M15.2479 5.69027C18.4512 5.4117 21.6545 3.74529 24.858 5.1637V24.7306C20.4391 22.774 16.0205 26.6872 11.6019 24.7306L11.6018 21.6305C11.6018 21.5167 11.6018 21.4028 11.6017 21.2889C8.34279 21.5555 5.08367 23.2444 1.82454 21.8193V2.25237C6.29915 4.20894 10.7738 0.295804 15.2479 2.25237V5.69027ZM17.6884 16.3126C18.0739 16.2288 18.4594 16.1418 18.8449 16.0584C20.5521 15.6854 21.2321 14.6783 21.2312 13.0927V10.538C21.2316 8.979 20.7914 7.98923 18.7164 8.43799C17.5599 8.69016 16.4039 8.97134 15.247 9.07165V21.8302C16.0606 21.7597 16.8743 21.5994 17.6884 21.423V16.3126ZM17.6884 14.2376V10.6363C17.8411 10.6032 17.9942 10.5694 18.1468 10.5356C18.7182 10.4095 18.7703 10.6898 18.7716 11.1527C18.7712 11.8617 18.7712 12.5703 18.7716 13.2793C18.7712 13.6736 18.7177 14.0108 18.1468 14.1369C17.9942 14.1707 17.8411 14.2046 17.6884 14.2376ZM7.9602 18.5172V13.064C8.13139 13.0273 8.303 12.9899 8.47419 12.9524C8.97051 12.844 9.11583 12.9673 9.11669 13.5675V17.2889C9.11755 17.8549 9.2094 18.1091 9.33703 18.2199C10.1511 18.0495 10.9644 17.9024 11.7781 17.8489V17.7631C11.6871 17.6148 11.5758 17.384 11.5767 16.8349V12.4964C11.5776 11.5489 10.9152 11.1876 10.5302 11.1183C10.9877 10.8504 11.6138 10.3295 11.6129 9.26968V7.22892C11.6129 5.86089 10.8609 5.1382 9.37369 5.45362C8.08913 5.72151 6.80371 6.04942 5.51871 6.1602V18.9188C6.33283 18.8487 7.14651 18.6912 7.9602 18.5172ZM7.9602 10.9547V7.73085C8.14389 7.69178 8.32758 7.65149 8.51085 7.61121C9.0063 7.50285 9.11626 7.65149 9.11669 8.20015V9.93235C9.11669 10.5326 8.93429 10.7429 8.43754 10.8512C8.27843 10.8859 8.11931 10.9209 7.9602 10.9547Z" fill="white"/>
</svg>
