<svg width="24" height="24" viewBox="0 0 32 32" fill="none" xmlns="http://www.w3.org/2000/svg">
<path d="M23.212 22.308C23.212 21.8794 23.0111 21.5379 22.6094 21.2835C20.0245 19.7433 17.0312 18.9732 13.6294 18.9732C11.8482 18.9732 9.92632 19.2009 7.86382 19.6562C7.30132 19.7768 7.02007 20.125 7.02007 20.7009C7.02007 20.9687 7.11047 21.1998 7.29128 21.394C7.47208 21.5882 7.7098 21.6852 8.00445 21.6852C8.07141 21.6852 8.31918 21.6317 8.74775 21.5245C10.5156 21.1629 12.1428 20.9821 13.6294 20.9821C16.6562 20.9821 19.3147 21.6719 21.6049 23.0513C21.8594 23.1986 22.0803 23.2723 22.2678 23.2723C22.5223 23.2723 22.7433 23.1819 22.9308 23.0011C23.1183 22.8203 23.212 22.5893 23.212 22.308ZM25.1406 17.9888C25.1406 17.4531 24.9062 17.0446 24.4375 16.7634C21.2634 14.875 17.5937 13.9308 13.4286 13.9308C11.3794 13.9308 9.35043 14.212 7.3415 14.7745C6.69864 14.9486 6.37721 15.3772 6.37721 16.0603C6.37721 16.3951 6.4944 16.6797 6.72878 16.914C6.96315 17.1484 7.24775 17.2656 7.58257 17.2656C7.67632 17.2656 7.92409 17.212 8.32588 17.1049C9.9598 16.6629 11.6406 16.4419 13.3683 16.4419C17.1049 16.4419 20.3728 17.2723 23.1719 18.933C23.4933 19.1071 23.7477 19.1942 23.9352 19.1942C24.2701 19.1942 24.5547 19.077 24.789 18.8426C25.0234 18.6082 25.1406 18.3236 25.1406 17.9888ZM27.3102 13.0067C27.3102 12.3772 27.0424 11.9085 26.5067 11.6004C24.8192 10.6227 22.8571 9.88279 20.6205 9.38056C18.3839 8.87833 16.087 8.62721 13.7299 8.62721C10.9977 8.62721 8.56025 8.94195 6.41739 9.57141C6.10936 9.66516 5.85154 9.83592 5.64396 10.0837C5.43637 10.3315 5.33257 10.6562 5.33257 11.058C5.33257 11.4732 5.46985 11.8214 5.7444 12.1027C6.01896 12.3839 6.36382 12.5245 6.779 12.5245C6.92632 12.5245 7.19418 12.471 7.58257 12.3638C9.36382 11.8683 11.4196 11.6205 13.75 11.6205C15.8794 11.6205 17.952 11.8482 19.9676 12.3036C21.9832 12.7589 23.6808 13.3951 25.0602 14.212C25.3415 14.3728 25.6094 14.4531 25.8638 14.4531C26.2522 14.4531 26.5904 14.3158 26.8783 14.0413C27.1663 13.7667 27.3102 13.4219 27.3102 13.0067ZM31.4286 16C31.4286 18.7991 30.7388 21.3806 29.3594 23.7444C27.9799 26.1082 26.1082 27.9799 23.7444 29.3594C21.3806 30.7388 18.7991 31.4286 16 31.4286C13.2009 31.4286 10.6194 30.7388 8.25556 29.3594C5.89172 27.9799 4.02007 26.1082 2.64061 23.7444C1.26114 21.3806 0.571411 18.7991 0.571411 16C0.571411 13.2009 1.26114 10.6194 2.64061 8.25556C4.02007 5.89172 5.89172 4.02007 8.25556 2.64061C10.6194 1.26114 13.2009 0.571411 16 0.571411C18.7991 0.571411 21.3806 1.26114 23.7444 2.64061C26.1082 4.02007 27.9799 5.89172 29.3594 8.25556C30.7388 10.6194 31.4286 13.2009 31.4286 16Z" fill="white"/>
</svg>
