<svg width="34" height="20" viewBox="0 0 54 32" fill="none" xmlns="http://www.w3.org/2000/svg">
<path fill-rule="evenodd" clip-rule="evenodd" d="M31.1128 1.7554C31.8764 2.51593 32.3476 3.52113 32.4438 4.59451C32.6129 6.36274 32.7594 8.69454 32.7594 11.4658C32.7594 14.2371 32.6129 16.5689 32.4438 18.3371C32.3476 19.4105 31.8764 20.4157 31.1129 21.1762C31.0619 21.2269 31.0099 21.2764 30.9569 21.3245V16.9482H28.9049V22.396C28.6964 22.444 28.4838 22.4775 28.2685 22.4959C27.6523 22.5471 26.9648 22.5988 26.2108 22.6478V13.5462H24.1588V22.7645C22.1552 22.8625 19.8152 22.9316 17.1989 22.9316C16.3963 22.9316 15.6217 22.927 14.8753 22.9184C14.817 22.6061 14.7878 22.266 14.7878 21.8982C14.7878 20.8302 15.0338 20.0022 15.5258 19.4142C16.0298 18.8142 16.7018 18.5142 17.5418 18.5142C18.1418 18.5142 18.6398 18.6522 19.0358 18.9282C19.4318 19.2042 19.7198 19.5882 19.8998 20.0802H22.1138C21.8378 19.0242 21.3038 18.2142 20.5118 17.6502C19.7318 17.0742 18.7418 16.7862 17.5418 16.7862C16.5938 16.7862 15.7538 16.9962 15.0218 17.4162C14.2898 17.8362 13.7138 18.4362 13.2938 19.2162C12.8858 19.9842 12.6818 20.8782 12.6818 21.8982C12.6818 22.2396 12.7046 22.5675 12.7503 22.882C9.25591 22.8025 6.49491 22.6393 4.51281 22.4837C3.43485 22.3974 2.42212 21.9328 1.65364 21.1719C0.885153 20.4111 0.410404 19.4031 0.313311 18.326C0.145157 16.5706 0 14.2645 0 11.5351C0 8.73603 0.146369 6.38844 0.31531 4.61089C0.411443 3.5329 0.885791 2.52366 1.65442 1.76174C2.42306 0.999828 3.43642 0.534357 4.51522 0.447691C7.275 0.231036 11.5438 0 17.1989 0C21.8949 0 25.7008 0.222535 28.2685 0.435603C29.3423 0.527582 30.3493 0.994856 31.1128 1.7554ZM12.7503 22.882C12.8412 23.5072 13.0223 24.0793 13.2938 24.5982C13.7138 25.3662 14.2898 25.9662 15.0218 26.3982C15.7538 26.8182 16.5938 27.0282 17.5418 27.0282C18.7178 27.0282 19.7018 26.7342 20.4938 26.1462C21.2858 25.5462 21.8258 24.7422 22.1138 23.7342H19.8998C19.5158 24.7782 18.7298 25.3002 17.5418 25.3002C16.7018 25.3002 16.0298 25.0002 15.5258 24.4002C15.2032 24.0068 14.9864 23.5129 14.8753 22.9184C14.1394 22.9099 13.431 22.8975 12.7503 22.882ZM24.1588 22.7645V26.8662H26.2108V22.6478C25.5733 22.6892 24.8883 22.7288 24.1588 22.7645ZM28.9049 22.396V26.8662H30.9569V21.3245C30.3741 21.8529 29.6669 22.2208 28.9049 22.396ZM12.7368 6.65217V16.2794L22.2338 11.4658L12.7368 6.65217ZM29.0129 15.2562C29.2649 15.5082 29.5769 15.6342 29.9489 15.6342C30.3089 15.6342 30.6149 15.5082 30.8669 15.2562C31.1189 15.0042 31.2449 14.6922 31.2449 14.3202C31.2449 13.9482 31.1189 13.6362 30.8669 13.3842C30.6149 13.1322 30.3089 13.0062 29.9489 13.0062C29.5769 13.0062 29.2649 13.1322 29.0129 13.3842C28.7609 13.6362 28.6349 13.9482 28.6349 14.3202C28.6349 14.6922 28.7609 15.0042 29.0129 15.2562ZM37.1249 17.2542C36.5249 17.5662 36.0509 17.9502 35.7029 18.4062V16.9482H33.6509V31.5822H35.7029V25.4262C36.0749 25.8822 36.5549 26.2662 37.1429 26.5782C37.7309 26.8782 38.4029 27.0282 39.1589 27.0282C40.0229 27.0282 40.8089 26.8122 41.5169 26.3802C42.2369 25.9362 42.8009 25.3242 43.2089 24.5442C43.6169 23.7522 43.8209 22.8582 43.8209 21.8622C43.8209 20.8662 43.6169 19.9842 43.2089 19.2162C42.8009 18.4482 42.2369 17.8542 41.5169 17.4342C40.8089 17.0022 40.0229 16.7862 39.1589 16.7862C38.4029 16.7862 37.7249 16.9422 37.1249 17.2542ZM41.3009 20.0982C41.5889 20.5902 41.7329 21.1782 41.7329 21.8622C41.7329 22.5462 41.5889 23.1462 41.3009 23.6622C41.0249 24.1782 40.6529 24.5742 40.1849 24.8502C39.7289 25.1142 39.2369 25.2462 38.7089 25.2462C38.1929 25.2462 37.7009 25.1142 37.2329 24.8502C36.7769 24.5862 36.4049 24.2022 36.1169 23.6982C35.8409 23.1822 35.7029 22.5822 35.7029 21.8982C35.7029 21.2142 35.8409 20.6202 36.1169 20.1162C36.4049 19.6122 36.7769 19.2282 37.2329 18.9642C37.7009 18.7002 38.1929 18.5682 38.7089 18.5682C39.2369 18.5682 39.7289 18.7002 40.1849 18.9642C40.6529 19.2162 41.0249 19.5942 41.3009 20.0982ZM47.3442 26.6142C47.9682 26.8902 48.6702 27.0282 49.4502 27.0282C50.2182 27.0282 50.8842 26.9022 51.4482 26.6502C52.0242 26.3982 52.4682 26.0502 52.7802 25.6062C53.0922 25.1622 53.2482 24.6582 53.2482 24.0942C53.2362 23.4582 53.0622 22.9482 52.7262 22.5642C52.3902 22.1802 51.9882 21.8922 51.5202 21.7002C51.0642 21.4962 50.4762 21.2982 49.7562 21.1062C49.2162 20.9502 48.8082 20.8242 48.5322 20.7282C48.2562 20.6202 48.0222 20.4762 47.8302 20.2962C47.6382 20.1162 47.5422 19.8942 47.5422 19.6302C47.5422 19.2942 47.6862 19.0242 47.9742 18.8202C48.2622 18.6162 48.6762 18.5142 49.2162 18.5142C49.7682 18.5142 50.2062 18.6462 50.5302 18.9102C50.8542 19.1742 51.0342 19.5282 51.0702 19.9722H53.1222C53.0742 18.9882 52.7022 18.2142 52.0062 17.6502C51.3222 17.0742 50.4162 16.7862 49.2882 16.7862C48.5322 16.7862 47.8602 16.9122 47.2722 17.1642C46.6962 17.4162 46.2522 17.7642 45.9402 18.2082C45.6282 18.6402 45.4722 19.1202 45.4722 19.6482C45.4722 20.2962 45.6402 20.8182 45.9762 21.2142C46.3242 21.6102 46.7322 21.9042 47.2002 22.0962C47.6682 22.2882 48.2742 22.4862 49.0182 22.6902C49.7862 22.9062 50.3442 23.1042 50.6922 23.2842C51.0522 23.4642 51.2322 23.7402 51.2322 24.1122C51.2322 24.4602 51.0702 24.7482 50.7462 24.9762C50.4342 25.1922 49.9902 25.3002 49.4142 25.3002C48.8622 25.3002 48.4002 25.1622 48.0282 24.8862C47.6682 24.5982 47.4702 24.2442 47.4342 23.8242H45.3102C45.3342 24.4242 45.5262 24.9702 45.8862 25.4622C46.2462 25.9422 46.7322 26.3262 47.3442 26.6142Z" fill="white"/>
</svg>
