<svg width="24" height="24" viewBox="0 0 30 22" fill="none" xmlns="http://www.w3.org/2000/svg">
<path d="M29.711 4.7075C29.6229 3.72453 29.1913 2.80401 28.4921 2.10753C27.7929 1.41106 26.8707 0.983142 25.8874 0.89891C23.5359 0.70379 20.0506 0.5 15.7502 0.5C10.5714 0.5 6.6622 0.711575 4.13488 0.90998C3.14696 0.989347 2.21895 1.41561 1.51507 2.11335C0.811177 2.81108 0.376785 3.73531 0.28875 4.7225C0.13404 6.35032 0 8.50016 0 11.0635C0 13.5629 0.13293 15.6748 0.28692 17.2824C0.375834 18.2687 0.810593 19.1918 1.51435 19.8886C2.2181 20.5853 3.14552 21.0108 4.13268 21.0899C6.65991 21.2882 10.5699 21.5 15.7502 21.5C20.0506 21.5 23.5359 21.2962 25.8874 21.101C26.8707 21.0168 27.7929 20.5889 28.4921 19.8925C29.1914 19.196 29.6229 18.2755 29.711 17.2925C29.8658 15.6732 30 13.5378 30 11C30 8.46217 29.8658 6.32678 29.711 4.7075ZM11.6639 15.4082V6.59183L20.361 11L11.6639 15.4082Z" fill="white"/>
</svg>
